<svg width="163" height="194" viewBox="0 0 163 194" fill="none" xmlns="http://www.w3.org/2000/svg">
<path d="M14.1618 99C14.241 96.5504 16.7085 94.9073 18.9992 95.7787L32.3131 100.844C34.1614 101.547 35.4216 103.273 35.5281 105.248L35.5561 105.767C35.7582 109.516 31.9117 112.142 28.4943 110.588L17.0362 105.38C15.1978 104.544 14.0425 102.685 14.1078 100.667L14.1618 99Z" fill="#8D47F9"/>
<path d="M14.1618 81.25C14.2404 78.6986 16.8308 77.0015 19.2013 77.9484L32.3785 83.2119C34.1914 83.936 35.4171 85.6491 35.5172 87.5987L35.5694 88.6145C35.7637 92.3988 31.842 95.0155 28.4223 93.3834L16.9445 87.9053C15.1551 87.0513 14.0394 85.2207 14.1005 83.2389L14.1618 81.25Z" fill="#8D47F9"/>
<path d="M55.9049 37.7714L118.545 67.7766C118.545 67.7766 145.12 80.8344 155.876 62.7757C162.204 44.9949 139.742 36.3823 139.742 36.3823L102.411 18.3237C102.411 18.3237 89.917 12.0983 82.4796 8.87761C74.8402 5.56944 63.814 1.65415 63.814 1.65415C63.814 1.65415 25.8501 -8.90316 5.28631 23.3246C-13.6269 60.3943 23.5072 72.02 33.7657 74.4645C35.0438 74.769 36.175 73.7277 36.0711 72.418C35.5689 66.0912 34.5098 49.9697 36.2902 44.9949C39.7702 35.271 52.4248 36.1045 55.9049 37.7714Z" fill="white"/>
<path d="M46.9207 192.601C63.3652 186.236 130.935 159.949 147.967 151.168C162.627 142.902 172.173 121.361 149.33 106.583C130.766 96.681 80.9024 77.3022 56.7613 68.0936C50.2429 65.6072 43.299 70.4334 43.299 77.4099V97.566L42.6044 115.299C42.3051 122.941 50.3882 128.171 57.3458 124.996C65.026 121.492 74.6282 117.367 83.8705 114.098C103.986 106.982 111.145 99.8203 123.76 109.839C133.988 121.612 115.919 129.377 115.919 129.377L23.0154 167.518C14.6797 170.941 14.7672 182.776 23.1527 186.075L39.6775 192.575C42.0067 193.492 44.5865 193.504 46.9207 192.601Z" fill="white"/>
<path d="M14.1618 116.75C14.2417 114.404 16.5857 112.818 18.7933 113.615L32.2475 118.478C34.131 119.158 35.4269 120.903 35.5404 122.902C35.7511 126.615 31.9808 129.264 28.567 127.79L17.131 122.852C15.2424 122.036 14.0461 120.147 14.1161 118.092L14.1618 116.75Z" fill="#8D47F9"/>
</svg>
